<svg xmlns="http://www.w3.org/2000/svg" data-name="Layer 1" viewBox="0 0 93 116.25" x="0px" y="0px"><defs><style>.cls-1{fill-rule:evenodd;}</style></defs><title>a</title><path class="cls-1" d="M68.784,69.091v6.027c1.92-.419,3.355-1.664,3.355-3.091,0-1.773-.994-2.406-3.355-2.936Zm-2.813-3.425V59.639c-1.921.42-3.357,1.665-3.357,3.093,0,1.773,1,2.406,3.357,2.934Zm2.813-6.027v6.572c2.892.584,6.168,1.674,6.168,5.816,0,2.954-2.661,5.421-6.168,5.948v1.783a1.407,1.407,0,0,1-2.813,0V77.975c-3.508-.527-6.169-2.994-6.169-5.948a1.406,1.406,0,1,1,2.812,0c0,1.427,1.436,2.672,3.357,3.091V68.546c-2.893-.583-6.169-1.673-6.169-5.814,0-2.955,2.661-5.421,6.169-5.949V55a1.407,1.407,0,0,1,2.813,0v1.782c3.507.528,6.168,2.994,6.168,5.949a1.407,1.407,0,0,1-2.813,0c0-1.428-1.435-2.673-3.355-3.093Zm13.945,7.74A15.352,15.352,0,1,1,67.378,52.026,15.37,15.37,0,0,1,82.729,67.379Zm2.812,0A18.165,18.165,0,1,1,67.378,49.215,18.186,18.186,0,0,1,85.541,67.379Zm3.144,0A21.308,21.308,0,1,1,67.378,46.07,21.332,21.332,0,0,1,88.685,67.379Zm2.813,0a24.121,24.121,0,1,1-24.12-24.12A24.149,24.149,0,0,1,91.5,67.379ZM27.069,38.427a.447.447,0,1,0-.447.448.451.451,0,0,0,.447-.448Zm2.813,0a3.26,3.26,0,1,1-3.26-3.259,3.264,3.264,0,0,1,3.26,3.259ZM25.326,17.554l1.3,12.1,1.3-12.1a1.217,1.217,0,0,0-1.207-1.341h-.182a1.212,1.212,0,0,0-1.206,1.343Zm-2.8.3a4.027,4.027,0,0,1,4-4.454h.182a4.027,4.027,0,0,1,4,4.454L29.153,32.427a2.545,2.545,0,0,1-5.061,0h0L22.528,17.852ZM4.478,42.668a1.126,1.126,0,0,0,1.022.591H47.743a1.182,1.182,0,0,0,1.024-1.772L27.646,4.9h0a1.18,1.18,0,0,0-2.046,0L4.478,41.487a1.126,1.126,0,0,0,0,1.181ZM2.044,40.081A3.993,3.993,0,0,0,5.5,46.07H47.743A3.993,3.993,0,0,0,51.2,40.081L30.082,3.5h0a3.994,3.994,0,0,0-6.918,0L2.044,40.081Zm73.629-3.66a1.406,1.406,0,0,0-1.988,1.988l4.943,4.943a1.4,1.4,0,0,0,1.988,0l4.942-4.943a1.406,1.406,0,0,0-1.988-1.988l-2.542,2.542V13.887a1.407,1.407,0,0,0-1.407-1.405H42.093a1.406,1.406,0,1,0,0,2.811H78.215v23.67l-2.542-2.542Zm-63.194,43.2V55.089L9.938,57.631a1.406,1.406,0,0,1-1.99-1.988L12.891,50.7a1.407,1.407,0,0,1,1.99,0l4.943,4.945a1.406,1.406,0,0,1-1.99,1.988l-2.542-2.544V78.218H41.538a1.406,1.406,0,0,1,0,2.812H13.885A1.406,1.406,0,0,1,12.479,79.624Z"/><text x="0" y="108" fill="#000000" font-size="5px" font-weight="bold" font-family="'Helvetica Neue', Helvetica, Arial-Unicode, Arial, Sans-serif">Created by rukanicon</text><text x="0" y="113" fill="#000000" font-size="5px" font-weight="bold" font-family="'Helvetica Neue', Helvetica, Arial-Unicode, Arial, Sans-serif">from the Noun Project</text></svg>